HIERARCHY
ROOT Hips
{
	OFFSET 0.000000 0.000000 0.000000
	CHANNELS 6 Xposition Yposition Zposition Zrotation Yrotation Xrotation 
	JOINT LowerBack
	{
		OFFSET 0.000000 0.000000 0.000000
		CHANNELS 3 Zrotation Yrotation Xrotation
		JOINT Spine
		{
			OFFSET 0.028270 2.035590 -0.193380
			CHANNELS 3 Zrotation Yrotation Xrotation
			JOINT Spine1
			{
				OFFSET 0.056720 2.048850 -0.042750
				CHANNELS 3 Zrotation Yrotation Xrotation
				JOINT Neck
				{
					OFFSET 0.000000 0.000000 0.000000
					CHANNELS 3 Zrotation Yrotation Xrotation
					JOINT Neck1
					{
						OFFSET -0.054170 1.746240 0.172020
						CHANNELS 3 Zrotation Yrotation Xrotation
						JOINT Head
						{
							OFFSET 0.104070 1.761360 -0.123970
							CHANNELS 3 Zrotation Yrotation Xrotation
							End Site
							{
								OFFSET 0.000000 0.000000 0.000000
							}
						}
					}
				}
				JOINT LeftShoulder
				{
					OFFSET 0.000000 0.000000 0.000000
					CHANNELS 3 Zrotation Yrotation Xrotation
					JOINT LeftArm
					{
						OFFSET 3.362410 1.200890 -0.311210
						CHANNELS 3 Zrotation Yrotation Xrotation
						JOINT LeftForeArm
						{
							OFFSET 4.983000 -0.000000 -0.000000
							CHANNELS 3 Zrotation Yrotation Xrotation
							JOINT LeftHand
							{
								OFFSET 3.483560 -0.000000 -0.000000
								CHANNELS 3 Zrotation Yrotation Xrotation
								JOINT LeftFingerBase
								{
									OFFSET 0.000000 0.000000 0.000000
									CHANNELS 3 Zrotation Yrotation Xrotation
									JOINT LeftHandIndex1
									{
										OFFSET 0.715260 -0.000000 -0.000000
										CHANNELS 3 Zrotation Yrotation Xrotation
										End Site
										{
											OFFSET 0.000000 0.000000 0.000000
										}
									}
								}
								JOINT LThumb
								{
									OFFSET 0.000000 0.000000 0.000000
									CHANNELS 3 Zrotation Yrotation Xrotation
									End Site
									{
										OFFSET 0.000000 0.000000 0.000000
									}
								}
							}
						}
					}
				}
				JOINT RightShoulder
				{
					OFFSET 0.000000 0.000000 0.000000
					CHANNELS 3 Zrotation Yrotation Xrotation
					JOINT RightArm
					{
						OFFSET -3.136600 1.374050 -0.404650
						CHANNELS 3 Zrotation Yrotation Xrotation
						JOINT RightForeArm
						{
							OFFSET -5.241900 -0.000000 -0.000000
							CHANNELS 3 Zrotation Yrotation Xrotation
							JOINT RightHand
							{
								OFFSET -3.444170 -0.000000 -0.000000
								CHANNELS 3 Zrotation Yrotation Xrotation
								JOINT RightFingerBase
								{
									OFFSET 0.000000 0.000000 0.000000
									CHANNELS 3 Zrotation Yrotation Xrotation
									JOINT RightHandIndex1
									{
										OFFSET -0.622530 -0.000000 -0.000000
										CHANNELS 3 Zrotation Yrotation Xrotation
										End Site
										{
											OFFSET 0.000000 0.000000 0.000000
										}
									}
								}
								JOINT RThumb
								{
									OFFSET 0.000000 0.000000 0.000000
									CHANNELS 3 Zrotation Yrotation Xrotation
									End Site
									{
										OFFSET 0.000000 0.000000 0.000000
									}
								}
							}
						}
					}
				}
			}
		}
	}
}
}
MOTION
Frames: 7
Frame Time: 0.008333
-2.159718 16.736709 -0.137252 15.004014 79.471148 37.154601 -8.230918 2.033478 6.170024 -2.897605 2.410575 -2.222311 -7.366387 2.287743 -0.880464 8.725033 8.170870 5.059961 -4.850686 -0.440287 2.877258 0.000000 0.000000 0.000000 -8.769541 -1.278964 2.700142 -58.908492 -6.168964 14.301674 -3.726879 -21.860640 -0.002298 2.806784 1.449401 0.036345 -0.079445 0.019952 0.000000 0.000000 0.000000 0.000000 0.000000 0.000000 0.000000 20.211025 8.938035 -1.171044 79.788083 26.553464 25.743429 1.621479 38.439481 -0.000347 1.269607 10.663345 0.124479 -0.032596 -0.236126 0.000000 0.000000 0.000000 0.000000 0.000000 0.000000 0.000000 
-2.040059 16.739536 -0.137577 15.744387 79.198896 37.682091 -8.445281 2.015142 6.436150 -2.931413 2.399025 -2.174321 -7.337834 2.275858 -0.928719 8.458549 8.464078 5.277327 -4.829246 -0.439822 2.925343 0.000000 0.000000 0.000000 -9.025760 -1.900238 2.755579 -58.749632 -7.116900 13.935014 -3.799257 -20.301055 -0.002803 2.686979 1.633267 0.039142 -0.079158 0.026214 0.000000 0.000000 0.000000 0.000000 0.000000 0.000000 0.000000 19.850350 9.079538 -1.175921 80.236777 26.324797 24.524509 1.639592 36.701022 -0.000738 1.153768 10.656546 0.113167 -0.031173 -0.227716 0.000000 0.000000 0.000000 0.000000 0.000000 0.000000 0.000000 
-1.923160 16.745209 -0.142399 16.145828 78.936992 37.846179 -8.550632 2.000652 6.726220 -2.941456 2.388016 -2.118550 -7.303395 2.264978 -0.970634 8.142244 8.773388 5.497723 -4.805246 -0.439079 2.974633 0.000000 0.000000 0.000000 -9.295030 -2.516465 2.808284 -58.656510 -8.131536 13.440680 -3.862542 -18.676518 -0.003320 2.607570 1.804842 0.041839 -0.078580 0.033486 0.000000 0.000000 0.000000 0.000000 0.000000 0.000000 0.000000 19.424304 9.234779 -1.173941 80.634268 26.108201 23.222194 1.664734 34.945846 -0.000942 1.042256 10.593255 0.101657 -0.029106 -0.218597 0.000000 0.000000 0.000000 0.000000 0.000000 0.000000 0.000000 
-1.808265 16.753148 -0.151467 16.237713 78.688061 37.679248 -8.556259 1.986505 7.032948 -2.930580 2.374902 -2.052789 -7.268344 2.252884 -0.991051 7.792890 9.070956 5.700742 -4.783052 -0.438067 3.019309 0.000000 0.000000 0.000000 -9.567004 -3.052935 2.853390 -58.623858 -9.296910 12.879842 -3.916203 -16.961128 -0.003862 2.597874 1.946953 0.044837 -0.077788 0.041793 0.000000 0.000000 0.000000 0.000000 0.000000 0.000000 0.000000 18.969283 9.375378 -1.168784 80.963693 25.930281 21.913482 1.699303 33.191554 -0.000932 0.936216 10.480866 0.090249 -0.026246 -0.208876 0.000000 0.000000 0.000000 0.000000 0.000000 0.000000 0.000000 
-1.694647 16.762811 -0.164058 16.061740 78.453029 37.227890 -8.475793 1.970755 7.343234 -2.902282 2.358576 -1.981818 -7.235693 2.238053 -0.997332 7.431478 9.358120 5.892764 -4.763825 -0.436965 3.061367 0.000000 0.000000 0.000000 -9.824044 -3.542804 2.891511 -58.650104 -10.548257 12.217456 -3.954950 -15.206974 -0.004447 2.682012 2.052908 0.048535 -0.076462 0.050844 0.000000 0.000000 0.000000 0.000000 0.000000 0.000000 0.000000 18.512947 9.502790 -1.156297 81.207446 25.768185 20.612645 1.743516 31.474956 -0.000701 0.855965 10.317148 0.081142 -0.022876 -0.198785 0.000000 0.000000 0.000000 0.000000 0.000000 0.000000 0.000000 
-1.581656 16.773795 -0.179140 15.674598 78.231160 36.556365 -8.328365 1.951337 7.642981 -2.861012 2.337796 -1.911487 -7.207407 2.218709 -1.000232 7.080855 9.650655 6.085000 -4.746944 -0.435905 3.104131 0.000000 0.000000 0.000000 -10.048670 -4.023508 2.925151 -58.728785 -11.811372 11.423438 -3.974609 -13.479223 -0.005116 2.875842 2.122378 0.053431 -0.074348 0.060309 0.000000 0.000000 0.000000 0.000000 0.000000 0.000000 0.000000 18.077700 9.634684 -1.132984 81.351857 25.579188 19.291782 1.795875 29.849789 -0.000249 0.838336 10.087044 0.077337 -0.019565 -0.188483 0.000000 0.000000 0.000000 0.000000 0.000000 0.000000 0.000000 
-1.468728 16.785852 -0.195667 15.118100 78.020734 35.718793 -8.132776 1.926086 7.920109 -2.811811 2.311140 -1.840989 -7.188512 2.193779 -0.986212 6.758397 9.912644 6.258311 -4.736298 -0.434902 3.142263 0.000000 0.000000 0.000000 -10.234588 -4.437580 2.949842 -58.840194 -13.148399 10.597553 -3.976137 -11.783126 -0.005920 3.193491 2.139712 0.059324 -0.071613 0.069939 0.000000 0.000000 0.000000 0.000000 0.000000 0.000000 0.000000 17.698340 9.733618 -1.103619 81.396079 25.395241 18.045469 1.857276 28.311224 0.000372 0.870619 9.817913 0.077832 -0.016128 -0.178109 0.000000 0.000000 0.000000 0.000000 0.000000 0.000000 0.000000 
